<svg xmlns="http://www.w3.org/2000/svg" width="23" height="23" viewBox="0 0 23 23">
  <path id="comment-alt-regular" d="M20.125,0H2.875A2.878,2.878,0,0,0,0,2.875V15.813a2.878,2.878,0,0,0,2.875,2.875H7.188v3.773A.538.538,0,0,0,7.727,23a.516.516,0,0,0,.319-.108l5.611-4.2h6.469A2.878,2.878,0,0,0,23,15.813V2.875A2.878,2.878,0,0,0,20.125,0Zm.719,15.813a.721.721,0,0,1-.719.719H12.938l-.575.431L9.344,19.227v-2.7H2.875a.721.721,0,0,1-.719-.719V2.875a.721.721,0,0,1,.719-.719h17.25a.721.721,0,0,1,.719.719Z" fill="rgba(112,112,112,0.5)"/>
</svg>
