<svg xmlns="http://www.w3.org/2000/svg" width="19.414" height="22.187" viewBox="0 0 19.414 22.187">
  <path id="notificationIcon" d="M19.04,15.7c-.837-.9-2.4-2.253-2.4-6.686A6.843,6.843,0,0,0,11.092,2.29v-.9a1.386,1.386,0,1,0-2.772,0v.9A6.843,6.843,0,0,0,2.776,9.013c0,4.433-1.567,5.786-2.4,6.686A1.354,1.354,0,0,0,0,16.64,1.388,1.388,0,0,0,1.39,18.027H18.022a1.388,1.388,0,0,0,1.391-1.387,1.353,1.353,0,0,0-.373-.941Zm-16.114.247c.92-1.212,1.925-3.221,1.93-6.908,0-.009,0-.016,0-.025a4.853,4.853,0,1,1,9.707,0c0,.009,0,.016,0,.025,0,3.688,1.01,5.7,1.93,6.908Zm6.78,6.24a2.773,2.773,0,0,0,2.772-2.773H6.934A2.773,2.773,0,0,0,9.706,22.187Z" transform="translate(0.001)" fill="rgba(112,112,112,0.5)"/>
</svg>
